<svg width="74" height="74" viewBox="0 0 74 74" fill="none" xmlns="http://www.w3.org/2000/svg">
<circle cx="37" cy="37" r="36" stroke="#333333" stroke-width="2"/>
<g clip-path="url(#clip0_291_54)">
<path d="M60.7763 41.8619C60.7662 40.9513 60.7556 40.0109 60.7299 39.0856C60.7202 38.7382 60.7125 38.3902 60.7059 38.0423C60.683 36.908 60.659 35.7355 60.5377 34.5891C60.417 33.4477 60.2495 32.2937 60.0879 31.1777C59.9205 30.0219 59.7473 28.8285 59.6262 27.6503C59.3397 24.866 57.3364 21.9912 53.6002 22.2483C52.2976 22.3106 50.9923 22.29 49.6922 22.1866C49.024 22.1477 48.3331 22.1076 47.6532 22.0909C47.2014 22.0799 46.8895 21.8854 46.5759 21.4195C46.184 20.838 45.7679 20.2607 45.3653 19.7024C45.199 19.4715 45.0331 19.2404 44.8676 19.0092C44.4239 18.3866 43.8251 18.1276 42.9337 18.1656C39.9984 18.2937 37.3482 18.3745 34.8315 18.412C33.55 18.4323 32.2425 18.3461 31.0196 18.2516C29.6019 18.1435 28.5162 18.6175 27.6104 19.7484C27.0401 20.4235 26.4215 21.0557 25.7597 21.6397C25.5392 21.8441 25.319 22.048 25.1028 22.2554C24.9829 22.3551 24.8495 22.4372 24.7067 22.4991L24.6372 22.5342L24.6024 22.4116C24.5456 22.2081 24.4982 22.0369 24.446 21.867C24 20.392 23.2091 19.8129 21.7368 19.8545C20.7212 19.8861 19.7222 19.9758 18.794 20.0682C18.3383 20.0943 17.9022 20.264 17.5473 20.5533C17.1924 20.8426 16.9366 21.237 16.8161 21.6807C16.697 22.1062 16.6051 22.5391 16.5411 22.9765C16.5117 23.1495 16.482 23.3259 16.4483 23.5057L16.3614 23.5408C16.205 23.6033 16.0281 23.6742 15.8547 23.7609C14.2473 24.5652 13.3034 25.5243 12.8834 26.7794C12.5766 27.6979 12.5137 28.7056 12.4911 29.6589C12.3835 34.1985 12.301 38.8145 12.2212 43.2784L12.1608 46.6406C12.1019 49.8664 13.0092 52.1917 15.0167 53.9613C15.7465 54.6036 16.4045 55.0854 17.2484 55.3471C18.8123 55.8327 20.3954 55.9105 21.9474 55.9105C22.3152 55.9105 22.6813 55.9061 23.0454 55.9017C31.4126 55.8018 38.734 55.6995 45.4275 55.5888C48.5406 55.5363 51.3402 55.4468 53.9856 55.3127C54.9201 55.264 55.8424 55.0776 56.7232 54.7593C59.1037 53.8919 61.2116 50.3492 60.9803 47.6067C60.819 45.7002 60.7973 43.7491 60.7763 41.8619ZM14.9228 28.5857C14.9069 27.145 15.2321 26.2916 17.054 25.6262C18.1452 25.2272 19.3615 25.0834 20.5378 24.9454C20.877 24.9053 21.2155 24.8653 21.5512 24.8196C22.1349 24.7403 22.7369 24.7 23.3192 24.661C23.874 24.6239 24.4476 24.5855 25.0101 24.5133C25.2726 24.4797 25.9325 24.358 26.3907 23.9579C27.3817 23.0938 28.327 22.1781 29.223 21.2145C29.711 20.6892 30.1569 20.4722 30.757 20.4722H30.7801C33.634 20.4983 36.2883 20.4988 38.8947 20.4738C40.1682 20.4617 41.4243 20.3687 42.3765 20.2905C42.6107 20.2573 42.8493 20.2936 43.0635 20.3948C43.2776 20.496 43.4579 20.6578 43.5825 20.8604C44.2353 21.801 44.7629 22.5747 45.243 23.2956C45.4308 23.6004 45.6923 23.8521 46.003 24.0272C46.3138 24.2023 46.6636 24.295 47.0196 24.2965C47.8909 24.3267 48.7617 24.3632 49.6328 24.4C50.9652 24.4561 52.3434 24.514 53.6988 24.5461C55.7616 24.5946 56.939 25.5516 57.1984 27.3903C57.3103 28.1825 57.432 28.9865 57.5494 29.764C58.0768 33.2488 58.6219 36.8515 58.4382 40.4687C58.3459 42.2876 58.4135 44.141 58.4789 45.9338C58.5037 46.6189 58.5296 47.3276 58.5459 48.023C58.5951 50.1058 57.2254 52.179 55.4918 52.6448C54.6386 52.8477 53.765 52.9489 52.8885 52.946C49.323 53.0223 45.7449 53.0593 42.2847 53.0952C41.1004 53.1073 39.8959 53.1038 38.7308 53.1009C38.1925 53.0995 37.654 53.0987 37.1157 53.0981C37.0921 53.098 37.0688 53.1025 37.0471 53.1116C37.0254 53.1206 37.0056 53.1339 36.9891 53.1507C36.9852 53.1542 36.9818 53.158 36.9785 53.1622C35.7662 53.1763 34.5538 53.1906 33.3415 53.2057C29.7871 53.2486 26.1117 53.2932 22.4968 53.319C21.5235 53.3144 20.5511 53.2559 19.5841 53.1439C17.4274 52.9141 15.4486 51.0222 15.1734 48.9259C14.9707 47.2393 14.8578 45.543 14.8351 43.8444C14.7887 41.8762 14.8068 39.872 14.8243 37.934L14.8323 37.0287C14.8408 36.0057 14.8594 34.9651 14.8775 33.9587C14.9102 32.1981 14.9428 30.3771 14.9228 28.5857ZM18.4036 23.0953C18.4844 22.1847 18.666 22.023 19.4946 21.9412C19.9771 21.8938 20.4724 21.8683 20.9512 21.8432C21.1118 21.8349 21.2723 21.8263 21.4327 21.8174C21.5599 21.8102 21.6699 21.805 21.7655 21.805C22.2659 21.805 22.3717 21.9523 22.4605 22.754L18.4036 23.0953Z" fill="#333333"/>
<path d="M31.2848 45.6653C32.7181 46.298 34.2731 46.602 35.8373 46.5551C36.011 46.5635 36.1853 46.5677 36.3601 46.5677C38.5774 46.5677 40.7951 45.8809 43.1209 44.4761C43.7162 44.1003 44.2448 43.6268 44.6847 43.0752C46.0105 41.471 46.6984 39.4489 46.7872 36.8937C46.8982 34.4164 46.1592 31.9762 44.6946 29.9836C43.9522 28.9931 43.022 28.1607 41.9583 27.5347C40.8945 26.9087 39.7182 26.5015 38.4973 26.3366C36.9827 26.1135 35.3066 26.4335 33.8672 26.7769C29.8475 27.7358 27.4251 30.1247 26.6672 33.8774C26.4258 35.0713 26.1876 36.4755 26.2512 37.8366C26.4289 41.6184 28.1224 44.2525 31.2848 45.6653ZM44.0484 37.0164L44.071 37.0208C44.01 37.2964 43.956 37.5757 43.9032 37.8473C43.7826 38.6103 43.584 39.3589 43.3108 40.0809C42.9393 40.9597 42.3482 41.7394 41.7296 42.1669C39.1554 43.9455 36.349 44.5042 33.3874 43.8277C30.1816 43.0955 28.3709 40.483 28.6612 37.0082C28.7811 35.7976 28.9838 34.5968 29.2678 33.4144C29.7472 31.3046 32.3322 28.8754 34.9619 28.8754C34.9765 28.8754 34.9918 28.8754 35.0064 28.8754L35.1627 28.8769C36.6463 28.8915 38.0471 28.9054 39.4054 29.4574C42.0796 30.5441 43.5494 32.5839 43.8993 35.6929C43.9217 35.9491 43.9259 36.2065 43.9117 36.4634C43.9078 36.5888 43.904 36.7143 43.904 36.8392C43.9039 36.881 43.9183 36.9215 43.9447 36.9539C43.9709 36.9863 44.0078 37.0084 44.0484 37.0164Z" fill="#333333"/>
<path d="M49.2131 30.9115C49.6683 30.9578 50.1314 30.9912 50.5788 31.0238C50.7757 31.038 50.9727 31.0527 51.1696 31.0677H51.1793C51.216 31.0663 51.2514 31.0536 51.2808 31.0313C51.3698 31.0313 51.4587 31.0318 51.5479 31.0329C51.8101 31.0348 52.0811 31.0367 52.3499 31.0294C53.6373 30.9929 54.2761 30.4214 54.4204 29.1759C54.4992 28.5131 54.5289 27.8454 54.5098 27.1781C54.4644 25.7527 53.9228 25.1708 52.6401 25.1708H52.6352C51.4591 25.1722 50.2721 25.3809 49.1229 25.583L48.6569 25.6646C48.0362 25.7716 47.6352 26.3183 47.6352 27.0573C47.6383 27.8991 47.692 28.7399 47.7959 29.5751C47.8883 30.3428 48.4051 30.8296 49.2131 30.9115ZM49.6174 27.2166C49.772 27.0394 50.1241 26.9714 50.8283 26.986C50.885 26.9882 50.9414 26.9934 50.9976 27.0017C51.0572 27.0094 51.1169 27.017 51.1769 27.0192C51.7739 27.0457 52.1343 27.0618 52.2446 27.187C52.355 27.3122 52.3273 27.6731 52.2822 28.2713C52.2542 28.6427 52.2356 28.8883 52.1631 28.9543C52.0907 29.0203 51.8401 29.0224 51.4624 29.0227H49.6343L49.6042 28.8338C49.5767 28.6608 49.5588 28.5482 49.5425 28.435C49.4423 27.746 49.464 27.3927 49.6174 27.2172V27.2166Z" fill="#333333"/>
</g>
<defs>
<clipPath id="clip0_291_54">
<rect width="49" height="38" fill="white" transform="translate(12 18)"/>
</clipPath>
</defs>
</svg>
