<?xml version="1.0" encoding="UTF-8"?>
<svg id="_レイヤー_2" data-name="レイヤー 2" xmlns="http://www.w3.org/2000/svg" viewBox="0 0 345.22 246.95">
  <defs>
    <style>
      .cls-1 {
        fill: #edbec0;
      }

      .cls-2 {
        fill: #231815;
      }
    </style>
  </defs>
  <g id="_レイヤー_1-2" data-name="レイヤー 1">
    <g>
      <path class="cls-2" d="M154.66,181.29c-3.42,1.71-8.04,2.05-11.46,2.05h-1.37c-.86,0-1.88,0-1.88-.68,0-.51.51-.68,1.37-.68,1.88,0,3.08-1.71,3.08-5.13,0-3.94.17-10.78,7.7-10.78,4.28,0,7.7,3.59,7.7,7.7,0,3.76-2.22,5.99-5.13,7.53ZM190.93,146.04c.34-1.54.51-3.08.51-4.79,0-2.91-2.22-4.11-5.13-4.11-.34,0-1.03-.17-1.03-.68,0-.86,2.22-.86,2.91-.86,8.21,0,22.93,1.37,22.93,12.49,0,5.65-4.62,10.27-10.09,10.27-4.45,0-8.38-2.91-9.75-7.19h-6.84v36.61c0,3.94-3.25,7.01-7.01,7.01s-7.19-3.08-7.19-7.01v-36.61h-7.19l-1.54,1.54c-1.54,1.54-3.59,2.4-5.82,2.4-4.28,0-8.04-3.59-8.04-8.04,0-2.05.86-4.28,2.4-5.82l18.82-18.82-.34-.34c-2.91-2.91-6.67-3.25-10.61-3.42-5.3-.17-9.75-4.45-9.75-9.75,0-3.59,1.88-5.99,4.11-8.21l14.71-14.89c1.03-1.03,2.74-2.91,4.11-4.11,1.2-1.2,2.4-2.74,2.4-4.28,0-.86-.51-1.54-.86-2.05-.34-.34-.34-.51-.34-.68,0-.34.34-.51.51-.51,1.71,0,10.78,11.29,10.78,15.57,0,2.57-2.57,4.96-5.47,7.87l-13.17,13.35,7.87,7.7,7.36-7.36c1.88-2.05,6.67-5.99,6.67-8.9,0-.34-.34-.86-.68-1.37-.34-.51-.51-.86-.51-1.2,0-.17.17-.51.51-.51,2.22,0,10.95,11.29,10.95,15.4,0,2.22-1.54,3.94-5.65,8.04l-23.1,23.27h22.58ZM206.33,184.2c-4.28,0-7.87-3.59-7.87-7.87v-2.57c0-2.57-.34-5.48-3.42-5.65-.51,0-1.03,0-1.03-.68s2.22-.68,2.74-.68c6.33,0,17.28,1.2,17.28,9.58,0,4.28-3.59,7.87-7.7,7.87ZM261.25,109.77c0,4.62-3.93,8.56-8.73,8.56s-8.55-3.94-8.55-8.56v-17.45h-24.3c-.68,0-1.54,0-2.4.17-.68.17-1.03.17-1.71.17-.86,0-1.2-.51-1.54-1.2-.86-1.2-1.71-2.57-3.25-3.08-.34,0-.86-.17-.86-.68,0-.34.34-.51.68-.51h33.36v-14.54c0-2.05,0-6.5-.17-9.07-.17-1.88-1.54-3.42-3.42-3.59-.51,0-1.03,0-1.03-.68s1.37-.68,2.74-.68h2.05c4.28,0,12.66.51,15.06,4.11,1.37,1.88,2.05,4.62,2.05,7.01v17.45h7.7c4.11,0,7.01-2.05,9.58-4.96,2.22-2.4,4.62-4.28,8.04-4.28,4.11,0,8.38,2.74,8.38,7.19,0,4.96-4.96,7.19-9.24,7.19h-24.47v17.45ZM254.41,152.03c3.94,0,6.84-2.22,9.58-4.79,1.71-1.71,4.11-2.74,6.67-2.74,6.67,0,9.41,5.3,9.41,11.12v27.72c0,5.99-2.74,11.12-9.41,11.12-3.42,0-5.82-1.88-8.21-4.11-2.22-2.05-4.96-3.42-8.04-3.42h-10.09c-.68,4.28-4.28,7.7-8.73,7.7-4.96,0-9.07-4.11-9.07-9.07v-30.11c0-1.88-.17-4.62-.68-6.84-.34-1.71-1.2-3.25-2.74-3.42-.34,0-.86-.17-.86-.51,0-.86,1.54-.86,2.22-.86,3.25,0,7.7.17,11.46,1.2,3.94,1.03,7.36,2.91,8.21,7.02h10.27ZM240.89,128.59c-.68,0-1.54.17-2.22.34-.86.17-1.54.17-2.05.17-.86,0-1.2-.68-1.54-1.2-.68-1.37-1.54-2.74-3.08-3.08-.51-.17-1.03-.17-1.03-.68s.51-.68.86-.68h24.64c3.93,0,6.16-1.71,8.55-4.62,1.37-1.54,3.08-2.57,4.96-2.57,3.42,0,6.5,3.08,6.5,6.5,0,3.94-3.59,5.65-7.19,5.82h-28.4ZM244.49,181.8h19.16v-24.47h-19.16v24.47Z"/>
      <path class="cls-2" d="M215.08,244.82c-.37,1.01-.85,2.08-2.07,2.13-.99.04-1.9-.74-1.94-1.73-.02-.47.14-.94.29-1.36l10.23-29.66c-.45-1.03-.96-2.01-1.84-1.97-.17,0-.52.2-.64.2-.12,0-.18-.11-.18-.23-.01-.35,2.85-1.82,5.36-1.92,2.1-.09,2.62,1.12,3.52,3.07l13.39,28.27c.19.4.26.75.28,1.16.07,1.63-1.28,3.04-2.91,3.1-1.52.06-2.38-1.01-3.02-2.33l-3.78-7.85-13.78.57-2.92,8.54ZM230.88,233.75l-6.99-14.74-5.21,15.24,12.2-.51Z"/>
      <path class="cls-2" d="M258.84,203.76c5.29-2.03,11.12-.21,13.24,5.3,1.8,4.69.07,10.11-4.06,12.89,3.15.54,5.51,2.45,7.68,4.68,1.55,1.59,3.17,3.04,5.35,3.83,1.39.53,3.11.93,4.53.39.11-.04.33-.13.39.04.23.6-3.59,2.7-4.25,2.95-5.34,2.05-8.68-.61-12-4.52-2.5-2.92-5.17-5.46-9.26-3.89-.49.19-.91.41-1.38.65l4.3,11.18c.69,1.8.32,3.44-1.64,4.2-1.8.69-3.27-.37-3.92-2.06l-10.54-27.43c-.65-1.69-1.02-2.49-2.03-2.35-.29.05-.55.02-.6-.08-.08-.22.28-.42,1.26-.8,1.96-.75,5.34-1.74,6.64.51,1.42-2.49,3.61-4.45,6.28-5.48ZM261.74,222.23c4.15-1.59,7.07-6.35,5.4-10.71-1.28-3.33-5.16-4.96-8.43-3.71-2.24.86-3.92,2.82-4.69,5.06l3.88,10.09c1.37-.03,2.65-.27,3.85-.73Z"/>
      <path class="cls-2" d="M29.26,49.75c2.74,0,4.79-1.54,6.67-3.42,1.2-1.2,2.91-2.05,4.79-2.05,4.62,0,6.5,3.76,6.5,8.04v48.59c0,4.11-1.88,7.87-6.5,7.87-2.57,0-4.11-1.37-5.82-2.91s-3.59-2.4-5.65-2.4h-13c-.51,3.08-3.08,5.48-6.33,5.48-3.59,0-6.5-2.91-6.5-6.33v-51.16c0-3.94-1.37-5.99-2.57-5.99-.68,0-.86-.17-.86-.68s1.2-.68,2.74-.68c4.62,0,10.78,1.03,12.83,5.65h13.69ZM35.08,74.22v-19.33h-18.82v19.33h18.82ZM16.25,98.18h18.82v-18.65h-18.82v18.65ZM68.1,71.83c-1.2,0-3.08.51-4.28.51-.34,0-1.03-.51-1.71-1.54-1.03-1.54-1.54-2.4-2.74-2.74-.51-.17-1.2-.51-1.2-.68,0-.51.34-.68.86-.68h58c4.11,0,5.99-1.54,8.55-4.62,1.2-1.54,2.91-2.57,4.96-2.57,3.42,0,6.5,2.91,6.5,6.33,0,4.28-3.25,5.99-7.19,5.99h-61.77ZM68.1,101.6c-1.2,0-3.08.51-4.28.51-.51,0-1.2-.86-1.88-1.88-1.03-1.54-1.2-1.71-2.74-2.4-.86-.34-1.03-.51-1.03-.68,0-.51.51-.68.86-.68h38.5v-9.07c0-2.57-.34-5.3-2.22-5.99-.51-.17-1.2-.51-1.2-.68,0-.68.68-.68,2.22-.68,5.65,0,17.28,1.71,17.28,9.07v7.36h3.42c4.11,0,5.99-1.37,8.55-4.45,1.2-1.37,3.08-2.74,4.96-2.74,3.42,0,6.5,3.08,6.5,6.5,0,3.94-2.91,5.82-7.19,5.82h-16.25v19.5c0,5.3,1.88,8.21,6.5,12.83,2.4,2.4,3.76,5.65,3.76,9.07,0,7.02-5.99,12.83-12.83,12.83-8.38,0-12.49-7.36-15.06-14.2-2.74-7.36-4.28-9.41-8.73-10.61-1.2-.34-4.62-1.03-4.96-1.03s-.51-.34-.51-.68.34-.51.68-.51h15.06v-27.2h-29.43ZM71.35,128.97c-4.11,0-7.87-3.59-7.87-7.7v-1.54c0-5.82-.86-6.33-3.42-6.84-.68-.17-.86-.34-.86-.51,0-.86,2.22-.86,2.91-.86,6.16,0,17.11,1.37,17.11,9.58,0,4.28-3.59,7.87-7.87,7.87ZM103.17,53.01c0,4.45-3.59,8.04-8.04,8.04s-8.04-3.59-8.04-8.04v-17.62h-4.79c-1.03,0-3.25.34-4.28.34-.34,0-1.2-.86-1.71-1.54-.86-1.2-1.54-2.22-2.91-2.74-.51-.17-1.03-.51-1.03-.68,0-.51.34-.68.86-.68h13.86v-9.92c0-2.91-.51-7.7-2.4-8.73-.34-.17-1.88-.86-1.88-1.03,0-.51,1.2-.68,2.22-.68h1.54c4.45,0,10.61.17,14.2,3.42,1.88,1.71,2.4,4.96,2.4,7.7v9.24c3.42-.34,4.79-1.03,7.53-4.45,1.2-1.37,2.91-2.74,4.96-2.74,3.42,0,6.5,3.08,6.5,6.5,0,3.94-3.59,5.99-7.19,5.99h-11.81v17.62Z"/>
      <path class="cls-1" d="M185.47,219.74c-19.02-24.51-52.43-23.16-80.44-22.03-6.66-5.01-13.93-7.6-21.53-8.9-8.96-6.54-16.43-14.85-24.31-23.35-10.65-11.49-23.48-22.88-39.64-24.95-7.78-1-15.39,2.68-15.64,11.34-.24,8.44,6.41,13.79,13.08,17.62,11.36,6.53,23.01,12.59,34.83,18.27-12.7.16-25.28-.29-36.61-5.89-4.88-2.41-9.19,4.9-4.28,7.33,16.18,8,33.92,6.62,51.44,6.51,2.24-.01,4.52.01,6.83.1,2.38,1.06,4.76,2.11,7.15,3.14,1.96.85,3.82.21,5.04-1,3.04,1.99,6.25,3.78,9.68,5.3,4.13,1.83,8.37,3.34,12.66,4.65.87.9,1.7,1.85,2.48,2.88,5.08,6.71,8.26,14.66,14.25,20.71,5.17,5.22,11.7,9.04,18.68,11.27,6.58,2.09,13.65,2.67,20.47,1.69,6.16-.89,14.66-3,17.23-9.46,2.87-7.21-3.67-12.29-9.08-15.66-6.56-4.09-13.85-7.01-21.22-9.29-5.5-1.7-11.11-3.05-16.72-4.33,18.87.53,37.47,4.38,49.64,20.06,3.34,4.31,9.31-1.74,6-6ZM15.38,158.16c-1.79-1.73-4.02-4.87-2.72-7.54,1.73-3.53,8.36-1.41,11.27-.53,14.06,4.22,24.33,15.93,33.85,26.42,2.63,2.9,5.29,5.74,8.03,8.47-10.11-4.67-20.09-9.6-29.93-14.82-6.58-3.49-15.08-6.76-20.5-11.99ZM150.11,220.15c2.99,1.1,5.92,2.37,8.75,3.84,2.69,1.39,7.27,3.34,9.12,5.87,1.51,2.05.59,2.92-1.71,4.03-1.29.63-2.68,1.03-4.06,1.39-3.3.88-6.67,1.22-10.08,1.13-6.35-.17-12.64-1.97-18.13-5.15-8.11-4.69-12.32-12.45-17.06-19.86,4.37,1.04,8.75,2.01,13.12,3.03,6.77,1.59,13.53,3.31,20.06,5.72Z"/>
      <g>
        <path class="cls-1" d="M258.79,12.33c-2.68,1.61-6.29,1.89-9.31,1.01-2.03-.59-3.68-1.64-5.23-3.04-1.15-1.03-2.5-1.8-4.01-2.24-2.03-.59-3.93-.58-5.72-.28-.27.05-.67.12-.72.1-.12-.03-.14-.17-.12-.23.1-.35,1.27-.89,1.7-1.08,2.75-1.22,5.65-1.44,8.44-.63,2.03.59,3.61,1.68,5.15,3.08,1.21,1.05,2.5,1.8,4.01,2.24,1.68.49,3.74.59,5.62.38.46-.06.82-.2.87-.19.12.03.14.17.12.23-.07.23-.59.52-.82.64Z"/>
        <path class="cls-1" d="M268.35,13.2c-.43-.21-1.17-.37-1.6-.58-.16-.08-.25-.46-.36-1.05-.08-.38-.06-.7-.22-.92-.36-.38-.57-.62-.52-.73.05-.11.16-.19.38-.08l4.62,2.26,4.14-8.48c.53-1.09,1.03-2.26.24-2.98-.33-.29-.46-.43-.41-.54.11-.22.57-.06,1.49.39,1.58.77,4.08,2.26,4.39,4.1.14.81.01,1.35-.94,3.31l-3.35,6.85c1.49.66,2.2.33,3.49-.25.75-.3,1.54-.39,2.25-.05,1.2.58,1.75,2.2,1.17,3.4-.69,1.41-2.31,1.43-3.57.82l-4.24-2.07-5.66,11.58c-1.38,2.83-2.1,4.57-2.1,6.78.07,1.79.55,3.57,1.59,4.88.08.11.25.46.22.51-.08.16-.21.16-.32.11-2.66-1.3-5.25-3.31-6.25-6.22-1.17-3.26.24-6.55,1.7-9.54l5.29-10.82-1.41-.69Z"/>
        <path class="cls-1" d="M300.89,45.36c-4.04,5.44-12.02,6.75-17.46,2.71-5.49-4.08-6.55-12.09-2.51-17.54,4-5.39,11.87-6.34,17.26-2.33,5.34,3.97,6.71,11.77,2.71,17.16ZM296.82,41.2c2.16-2.92,3.24-7.62-.11-10.1-3.89-2.89-9.31.25-11.76,3.55-2.13,2.87-3.44,7.77-.03,10.3,4.03,2.99,9.38-.35,11.9-3.75Z"/>
        <path class="cls-1" d="M322.49,36.45c.99-.8,1.7-1.46,1.24-2.41-.21-.45-.19-.62-.15-.66.19-.15.42.13.68.46.99,1.22,2.4,3.04,2.68,4.53.23,1.14-.19,1.87-1.04,2.56l-14.08,11.47,9.89,2.56c1.34.39,2.76.8,3.27.38.14-.11.27-.53.41-.65.09-.08.22-.02.25.03.23.28-.91,3.86-2.08,4.82-.7.57-1.46.41-3.05-.01l-11.94-3.16c.97,1.48,1.67,3.01,1.75,4.74.07,1.81-.57,3.43-1.33,4.98-.92,1.84-1.11,3.71.19,5.31.84,1.03,2.18,1.81,2.37,2.05.08.09.07.18.02.22-.38.31-4.51-.07-6.88-2.98-1.03-1.27-1.64-2.88-1.51-4.54.16-1.53.84-2.8,1.58-4.1.75-1.47,1.34-3.05,1-4.72l-4.32,3.52c-1.17.96-2.96.77-3.92-.4-.99-1.22-.81-3.01.36-3.96l2.72-2.22c-.29-.16-.61-.36-.84-.64-.8-.99-.61-2.47.38-3.27.56-.46,1.36-.64,2.03-.48l2.89.77,17.41-14.18Z"/>
        <path class="cls-1" d="M315.2,80.98c-1.79.88-3.55.6-4.51-1.36-.88-1.79.1-3.35,1.79-4.18l15.53-7.63c1.52-.75,2.77-1.36,2.64-2.31-.05-.38-.08-.84.03-.89.16-.08.4.27.88,1.25.77,1.57,1.84,4.29.96,5.93-.38.73-.87,1.1-2.72,2.01l-14.61,7.18ZM343.33,67.43c-1.68.83-3.71.14-4.51-1.49-.83-1.68-.14-3.71,1.55-4.54,1.63-.8,3.71-.14,4.54,1.55.8,1.63.06,3.68-1.57,4.48Z"/>
        <path class="cls-1" d="M316.34,96.09c-.73-5.09,3.46-9.12,8.31-9.81l10.78-1.55c2.22-.32,2.99-.49,3.35-1.34.19-.39.12-.87.24-.89.18-.03.35.32.52,1.51.24,1.68.42,4.65-.93,5.88-.59.57-.99.75-3.27,1.08l-5.63.81c-6.17.89-9.19,1.56-8.59,5.76.56,3.89,4.32,4.09,7.43,3.64l10.12-1.45c1.68-.24,3.25.94,3.49,2.62.24,1.68-.94,3.25-2.62,3.49l-24.44,3.51c-7.01,1.01-11.07-2.57-12.04-9.33-.03-.18-.05-.36.19-.39.06,0,.27.21.51.54,2.48,3.25,6.63,3.63,10.47,3.08l6.29-.9c-2.22-1.39-3.81-3.55-4.2-6.24Z"/>
        <path class="cls-1" d="M315.66,121.57c1.28-4.98,6.69-7.09,11.44-5.87l10.61,2.72c1.99.51,3.28.84,3.74-.23.13-.28.31-.48.43-.45.06.01.14.41-.16,1.58-.42,1.64-1.32,4.41-3.11,5.07-.76.3-1.26.3-3.43-.26l-5.51-1.41c-6.1-1.56-9.12-1.96-10.14,2.02-.98,3.81,2.42,5.43,5.47,6.21l9.91,2.54c1.64.42,2.64,2.11,2.22,3.76-.42,1.64-2.11,2.64-3.75,2.22l-12.07-3.1c-2.23-.57-4.48-1.02-6.81-.5-1.53.36-2.78.85-3.74,1.91-.27.31-.53.61-.71.57s-.12-.28-.04-.57c1.04-4.04,3.58-7.39,7.94-7.83-2.1-2.29-3.06-5.35-2.28-8.39Z"/>
        <path class="cls-1" d="M308.34,146.83c-1.75-.96-2.53-2.56-1.49-4.47.96-1.75,2.8-1.85,4.45-.95l15.18,8.3c1.49.81,2.71,1.48,3.41.83.28-.26.64-.54.75-.49.16.09,0,.49-.51,1.44-.84,1.54-2.45,3.97-4.3,4.2-.82.11-1.41-.08-3.21-1.07l-14.28-7.81ZM335.61,162.02c-1.65-.9-2.25-2.95-1.38-4.55.9-1.65,2.95-2.25,4.6-1.35,1.59.87,2.25,2.95,1.35,4.6-.87,1.59-2.98,2.16-4.57,1.29Z"/>
        <path class="cls-1" d="M301.63,182.06c-.29-3.11,1.03-6.48,3.13-8.82,1.42-1.57,3.08-2.61,5-3.39,1.42-.59,2.71-1.47,3.76-2.64,1.42-1.57,2.22-3.29,2.73-5.03.07-.26.18-.65.22-.7.08-.09.21-.05.26-.01.27.24.25,1.53.24,2-.1,3-1.15,5.72-3.09,7.88-1.42,1.57-3.08,2.52-5.01,3.31-1.47.63-2.71,1.47-3.76,2.64-1.17,1.3-2.15,3.11-2.78,4.9-.15.44-.17.82-.21.87-.08.09-.21.05-.26.01-.18-.16-.21-.76-.23-1.02Z"/>
      </g>
    </g>
  </g>
</svg>