<svg width="35" height="35" viewBox="0 0 35 35" fill="none" xmlns="http://www.w3.org/2000/svg">
<g clip-path="url(#clip0_207_31)">
<path d="M11.5779 11.954C12.197 12.5266 12.9549 12.782 14.036 12.782C14.0412 12.7825 14.0464 12.7825 14.0516 12.782C14.0848 12.7789 14.1256 12.776 14.1718 12.7728C14.2944 12.7642 14.4623 12.7521 14.6271 12.7276C15.1016 12.6643 15.5585 12.5058 15.9706 12.2616C16.3829 12.0173 16.742 11.6922 17.0265 11.3057C17.2977 10.9227 17.4896 10.4888 17.5904 10.0297C17.6912 9.57073 17.6989 9.09603 17.6132 8.63394C17.4324 7.57796 16.9306 6.90317 16.124 6.62886C15.5739 6.44322 14.9911 6.37491 14.4132 6.42834C13.8353 6.48179 13.2748 6.65578 12.7676 6.9392C12.2801 7.20587 11.8544 7.57321 11.5185 8.01702C11.1825 8.46085 10.944 8.97111 10.8187 9.51416C10.5979 10.4627 10.8534 11.2838 11.5779 11.954ZM14.5612 8.25315C14.5902 8.25315 14.6202 8.25315 14.6491 8.25315C15.1372 8.25315 15.5228 8.31324 15.7092 8.80426C15.8036 9.07138 15.8166 9.36073 15.746 9.63522C15.6755 9.9097 15.5249 10.1568 15.3136 10.3447C14.7849 10.8268 13.6545 10.9556 13.0321 10.6048C12.6337 10.3806 12.5123 10.1014 12.613 9.64163C12.8184 8.70276 13.4374 8.2619 14.5612 8.25315Z" fill="#F8F6F2"/>
<path d="M7.42639 34.5797C7.78525 34.5651 8.15718 34.5505 8.51807 34.5505C10.7238 34.5616 12.7396 34.5836 14.6805 34.6179C17.7884 34.6727 20.9615 34.7399 24.1103 34.8177C24.3675 34.8317 24.6231 34.8675 24.8742 34.9249C24.9975 34.9492 25.1211 34.9734 25.2441 34.9932C25.2519 34.9946 25.2598 34.9951 25.2676 34.9951H26.7534C26.7609 34.9951 26.7681 34.9946 26.7754 34.9935C27.0732 34.9498 27.3721 34.9098 27.671 34.8703C28.3171 34.785 28.9855 34.6968 29.6351 34.5588C32.6183 33.926 35.0111 30.8599 34.9689 27.7235C34.9407 25.6262 34.9462 23.493 34.9516 21.4299C34.9554 19.9492 34.9591 18.4184 34.9507 16.9125C34.9427 15.5359 34.8941 14.1373 34.847 12.7854L34.817 11.917C34.8062 11.5915 34.7966 11.2658 34.7879 10.9399C34.7589 9.86819 34.7284 8.75998 34.6231 7.67483C34.512 6.60576 34.3127 5.54778 34.0276 4.51172C33.2348 1.56589 30.426 0.181796 27.9951 0.117775C27.3004 0.0995461 26.597 0.148811 25.9164 0.196353C25.4046 0.232228 24.8754 0.26927 24.357 0.276853C22.946 0.297561 21.5106 0.306021 20.1232 0.314771C18.297 0.325854 16.4086 0.337542 14.5514 0.376187L14.2719 0.382169C11.6094 0.437586 8.85602 0.494737 6.15782 0.704883C3.24876 0.931362 1.32028 2.32962 0.425671 4.86114C0.275553 5.24614 0.187591 5.65274 0.165123 6.06558L0.150603 7.28414C0.106308 10.8441 0.0604163 14.5254 0.0711632 18.1464C0.0758105 19.7725 0.130412 21.4245 0.183276 23.0221C0.212322 23.9176 0.243547 24.8435 0.264896 25.7538C0.288423 26.7455 0.296707 27.5794 0.260835 28.4239C0.13013 31.4889 2.79332 34.4303 5.84718 34.5953C6.3745 34.6234 6.90938 34.6012 7.42639 34.5797ZM1.95855 8.66726C1.94053 7.37265 2.2458 6.09414 2.84648 4.94851C3.39486 3.93059 4.20247 3.29575 5.18233 3.11287C6.73322 2.82339 8.25172 2.56003 9.78098 2.51862C13.6674 2.41303 17.6203 2.35119 21.4427 2.29139C23.3701 2.26115 25.2972 2.22921 27.2244 2.19558C28.2555 2.17633 29.2771 2.48056 30.4446 3.15197C31.7185 3.88435 32.1247 5.20517 32.354 6.40072C32.8355 8.91138 33.0482 11.0162 33.0237 13.0243C33.0139 13.8161 33.0067 14.6098 33.0019 15.4058C32.9471 15.3552 32.8941 15.3027 32.8369 15.255C32.083 14.6263 31.3077 13.9988 30.5576 13.392C29.6537 12.6605 28.719 11.9044 27.8168 11.1413C26.6396 10.1461 25.9527 10.1715 24.8759 11.2504C22.3151 13.8155 19.6958 16.4291 17.1626 18.9567L14.2986 21.815L14.2479 21.7732C14.1545 21.696 14.0787 21.6335 14.0023 21.5719C13.6021 21.248 13.2025 20.9234 12.8035 20.5982C11.8304 19.8057 10.8228 18.9864 9.81816 18.1978C9.08911 17.6255 8.56745 17.6334 7.89403 18.2252C5.91979 19.9606 3.92434 21.73 1.98511 23.4507C1.96536 18.8841 1.95085 13.8271 1.95855 8.66726ZM2.18496 25.2841C2.56255 24.9656 2.93936 24.6459 3.31542 24.3254C4.02616 23.7212 4.76102 23.0965 5.49166 22.4926C6.27401 21.8456 7.08278 21.1957 7.86498 20.5676C8.1871 20.3086 8.51058 20.0481 8.8354 19.7863C9.26963 20.1381 9.70048 20.4869 10.1279 20.8324C11.2436 21.7344 12.2975 22.586 13.3652 23.4647C14.2115 24.1613 14.7254 24.1355 15.4807 23.3606C15.7338 23.1007 15.9829 22.8366 16.2318 22.5731C16.5577 22.2273 16.8946 21.8699 17.2352 21.5293C19.8079 18.9579 22.4288 16.3485 24.9635 13.8249L26.0687 12.7246C26.1754 12.6181 26.2903 12.5158 26.3825 12.4329L26.3911 12.4254C26.8632 12.7964 27.332 13.1658 27.7973 13.5337C29.1889 14.6327 30.5034 15.6709 31.8672 16.705C32.2127 16.9454 32.5921 17.1326 32.9925 17.2606C32.9839 20.0009 32.9938 22.7405 33.0041 25.4199C33.0073 26.2348 33.0102 27.0496 33.0128 27.8642C33.019 29.8386 31.4356 32.0002 29.5549 32.5842C28.1475 33.0115 26.6779 33.1944 25.2092 33.1247C23.2097 33.0423 21.1767 32.9456 19.2113 32.8523C18.3931 32.8133 17.5747 32.7744 16.7562 32.7356H16.7494L14.5396 32.7346C13.3495 32.734 12.1594 32.7336 10.9695 32.7334C9.67816 32.7334 8.3868 32.7343 7.09543 32.7363H7.08002C5.61496 32.7363 4.51632 32.3666 3.62361 31.5739C2.52873 30.6012 2.01432 29.2687 2.00459 27.3802C2.00125 26.7474 1.99805 26.0996 1.99486 25.4406C2.0589 25.3895 2.12295 25.3363 2.18496 25.2841Z" fill="#F8F6F2"/>
</g>
<defs>
<clipPath id="clip0_207_31">
<rect width="35" height="35" fill="white"/>
</clipPath>
</defs>
</svg>
