<svg width="29" height="45" viewBox="0 0 29 45" fill="none" xmlns="http://www.w3.org/2000/svg">
<g clip-path="url(#clip0_204_11)">
<path d="M28.8516 14.3428C28.9105 11.9093 28.9409 9.43469 28.9701 7.0415L28.9828 6.02127C28.9882 5.54948 28.9641 5.07784 28.9103 4.60915C28.7403 3.11887 28.0082 2.01937 26.7344 1.34109C25.7029 0.791803 24.5867 0.683399 23.7296 0.650423L21.4984 0.563156C17.6885 0.413763 13.7487 0.259271 9.87212 0.174009C8.2872 0.136955 6.70232 0.246717 5.13742 0.50193C2.88358 0.873954 1.51344 2.22832 1.17541 4.41893C0.916762 6.09504 0.756931 7.82054 0.622806 9.43617C0.531274 10.5391 0.483443 11.6632 0.437043 12.7503C0.420549 13.1391 0.404026 13.5281 0.385357 13.9163C0.363789 14.3683 0.339122 14.8201 0.314291 15.2721C0.251216 16.4199 0.186338 17.6058 0.178 18.7741C0.166038 20.4923 0.179814 22.2393 0.193046 23.9285C0.203196 25.2122 0.213688 26.5394 0.212782 27.8444C0.210426 31.2741 0.181319 34.6826 0.153043 37.5643C0.127963 38.7889 0.27302 40.011 0.584044 41.1954C1.01705 42.7946 1.9847 43.7963 3.54219 44.2574C4.88344 44.6549 6.33871 44.8428 8.2576 44.8665C10.2711 44.8912 12.1149 44.9029 13.8482 44.9029C15.685 44.9029 17.3977 44.8889 19.0532 44.861C20.4778 44.8369 21.9231 44.711 23.3207 44.5892C23.7541 44.5515 24.1874 44.5137 24.6208 44.4788C25.7487 44.3877 26.5886 43.7659 27.1166 42.6298C27.3124 42.202 27.476 41.7602 27.606 41.3078C28.3227 38.8774 28.4327 36.3442 28.4796 34.1605C28.5461 31.0608 28.5759 27.9086 28.6047 24.8602C28.6168 23.5652 28.6301 22.2703 28.6442 20.9753L28.6141 20.8893C28.6384 20.2404 28.6638 19.5914 28.6908 18.9423C28.7517 17.4351 28.8144 15.8768 28.8516 14.3428ZM26.2151 37.743L26.0683 38.457C25.8593 39.4781 25.6431 40.5339 25.3937 41.5623C25.2177 42.2887 24.7259 42.6822 23.9319 42.7316C23.3249 42.7695 22.7083 42.8185 22.112 42.8659C20.9779 42.9559 19.805 43.0491 18.6517 43.0692C15.0041 43.1324 11.7499 43.1342 8.70295 43.0739C7.32382 43.0468 5.7045 42.9455 4.1501 42.4017C3.3845 42.1338 2.93262 41.666 2.72745 40.9294L2.71355 40.8793C2.46397 39.9831 2.20606 39.0574 2.33566 37.9964C4.89128 37.9386 7.47718 37.8275 9.97825 37.7202C15.2677 37.493 20.7363 37.2585 26.1 37.5253C26.1212 37.5666 26.1422 37.6031 26.1609 37.6355C26.1828 37.6692 26.2011 37.7053 26.2151 37.743ZM2.37787 36.204C2.36754 36.1292 2.35661 36.0583 2.34592 35.9916C2.31637 35.836 2.3001 35.6781 2.29734 35.5196L2.34416 32.7955C2.423 28.1747 2.50458 23.3967 2.60373 18.6978C2.67333 15.3929 2.74864 12.1573 2.89781 8.89435C2.9765 7.66889 3.11975 6.44846 3.32686 5.23824L3.40244 4.74231C3.45098 4.30601 3.63549 3.89627 3.92955 3.57165C4.22363 3.24703 4.61225 3.02417 5.03989 2.93484L5.27735 2.87253C5.80835 2.70745 6.35792 2.61033 6.91311 2.58342H6.92417C10.7667 2.598 14.7505 2.64336 19.1052 2.72188C20.6563 2.74994 22.3372 2.82298 24.3952 2.95178C26.2385 3.06729 26.9595 3.82026 26.9664 5.63757C26.9794 9.07506 26.9142 12.5708 26.8511 15.9517L26.8344 16.8444C26.8069 18.3343 26.7603 19.849 26.7153 21.3136C26.6791 22.5128 26.6401 23.7527 26.6126 24.9726C26.5653 27.0749 26.527 29.2127 26.49 31.2797C26.4679 32.5113 26.4453 33.7429 26.4219 34.9743C26.4166 35.0971 26.4038 35.2193 26.3833 35.3405C26.376 35.3911 26.3682 35.4447 26.3606 35.5024C20.5414 35.2714 14.651 35.5833 8.95377 35.885C6.80088 35.9987 4.57571 36.1164 2.37787 36.204Z" fill="#333333"/>
<path d="M10.9164 27.118C10.6001 27.0382 10.274 27.005 9.94817 27.0192L9.78497 27.0178C9.20316 27.0099 8.6156 27.0114 7.993 27.0129C7.75539 27.0129 7.51104 27.0141 7.25729 27.0143C7.25729 26.7552 7.25894 26.506 7.26039 26.2637C7.26365 25.6767 7.26674 25.1223 7.25296 24.5721C7.23629 23.9088 7.13986 23.2952 6.5537 23.2952H6.55025C6.01992 23.2975 5.87289 23.8053 5.81507 24.5652C5.78299 24.9879 5.76068 25.418 5.74038 25.8339C5.72225 26.1888 5.70413 26.5435 5.68038 26.8979C5.59538 28.1399 6.04982 28.7301 7.19949 28.8717C7.91093 28.953 8.62656 28.9909 9.34256 28.9852C9.60066 28.9852 9.85098 28.9817 10.0895 28.9772C10.478 28.9561 10.8514 28.8187 11.1616 28.5826C11.2838 28.4767 11.3809 28.3446 11.4459 28.1962C11.5108 28.0477 11.542 27.8866 11.5371 27.7245C11.5094 27.4627 11.1514 27.1905 10.9164 27.118Z" fill="#333333"/>
<path d="M19.3444 14.0546C19.4111 14.0517 19.4756 14.0462 19.5437 14.049C20.137 14.0501 20.7306 14.049 21.3403 14.049H21.9747V14.3599C21.9747 14.6022 21.9761 14.805 21.9732 15.0076C21.97 15.2352 21.964 15.4631 21.958 15.6906C21.9462 16.141 21.9339 16.6067 21.9446 17.0652C21.9604 17.7331 22.254 18.1469 22.7504 18.2001C22.78 18.2033 22.8095 18.205 22.8392 18.205C23.3036 18.205 23.673 17.8031 23.7903 17.1541C23.8086 17.057 23.8183 16.9586 23.82 16.8597C23.8222 16.5908 23.8263 16.3219 23.8307 16.0528C23.841 15.397 23.8515 14.7201 23.8307 14.0535C23.8125 13.4634 23.6643 13.0466 23.379 12.7782C23.0937 12.5098 22.6752 12.394 22.0952 12.4155C21.2158 12.4486 20.3242 12.5248 19.462 12.5977L19.1272 12.6261C18.917 12.6213 18.7129 12.6969 18.5559 12.8374C18.3825 13.0311 18.2857 13.282 18.2841 13.5427C18.3022 13.7431 18.5873 13.9522 18.7838 14.0136C18.9668 14.0593 19.1566 14.0732 19.3444 14.0546Z" fill="#333333"/>
<path d="M23.8163 26.6315C23.7282 26.1711 23.6616 25.6975 23.5971 25.2396C23.5594 24.9713 23.5217 24.7031 23.4797 24.4356C23.4712 24.3823 23.4643 24.3274 23.4576 24.2717C23.4465 24.0685 23.3943 23.8698 23.304 23.6876C23.1737 23.4675 22.9325 23.1957 22.6813 23.1505C22.6019 23.1343 22.5198 23.1361 22.4411 23.1556C22.3623 23.1753 22.2889 23.2121 22.226 23.2636C22.1489 23.3321 22.0875 23.4165 22.0456 23.5109C22.0039 23.6054 21.9827 23.7078 21.9838 23.8113C21.9818 24.2341 22.0021 24.6568 22.0445 25.0775L22.0627 25.3025C22.0909 25.6556 22.127 26.0035 22.1687 26.4062C22.1854 26.5665 22.2028 26.7341 22.2207 26.9128C22.0527 26.9245 21.8945 26.9358 21.7447 26.9465C21.3677 26.9735 21.0379 26.9972 20.706 27.0137C20.5407 27.0221 20.3745 27.0229 20.2085 27.0234C19.9083 27.0174 19.6082 27.0334 19.3104 27.0713C18.7603 27.1549 18.4223 27.525 18.4297 28.0369C18.4368 28.5532 18.7693 28.8895 19.3421 28.9599C19.7483 29.0116 20.1572 29.0384 20.5664 29.0402C21.2847 29.049 21.9994 28.9364 22.6805 28.7072C23.6473 28.374 24.0187 27.6949 23.8163 26.6315Z" fill="#333333"/>
<path d="M6.47197 18.2779H6.48152C6.58637 18.2867 6.69197 18.2737 6.79155 18.2395C6.89113 18.2054 6.98255 18.1509 7.06014 18.0794C7.13774 18.008 7.1998 17.9212 7.24237 17.8245C7.28495 17.7278 7.3071 17.6232 7.30751 17.5175C7.35663 16.8652 7.37856 16.223 7.39814 15.5681C7.40738 15.2753 7.40544 14.9891 7.40309 14.6572C7.40309 14.5296 7.40124 14.3953 7.40088 14.2547C7.61403 14.244 7.82283 14.2339 8.02728 14.2245C8.60003 14.1973 9.14126 14.1718 9.68428 14.1315L9.73987 14.1275C10.0429 14.1291 10.3425 14.0622 10.6165 13.9318C10.7535 13.8505 10.8724 13.7416 10.9657 13.6119C11.059 13.4823 11.1246 13.3347 11.1585 13.1783C11.1676 13.1009 11.1611 13.0223 11.1393 12.9474C11.1175 12.8726 11.0808 12.8029 11.0316 12.7426C10.868 12.5671 10.6422 12.4637 10.4031 12.4547C10.2028 12.4417 10.0018 12.444 9.80191 12.4616L9.65216 12.4704C8.96245 12.5068 8.27289 12.5454 7.58354 12.5862L7.43618 12.5948C7.35897 12.5992 7.28163 12.6021 7.20406 12.6052C7.00078 12.6088 6.79791 12.6252 6.59667 12.6542C6.11744 12.7333 5.80675 13.0472 5.78608 13.474C5.71576 14.9235 5.68301 16.232 5.68554 17.4743C5.68232 17.5832 5.70059 17.6917 5.73936 17.7935C5.77813 17.8953 5.83653 17.9884 5.91131 18.0673C5.98624 18.1379 6.0744 18.1929 6.17062 18.2291C6.26685 18.2652 6.36931 18.2818 6.47197 18.2779Z" fill="#333333"/>
<path d="M14.8411 38.7096C14.6618 38.7078 14.484 38.7424 14.3183 38.8113C14.1526 38.8801 14.0024 38.9818 13.8767 39.1104C13.7734 39.2272 13.6946 39.3636 13.6453 39.5119C13.5959 39.6601 13.5769 39.8167 13.5894 39.9725C13.6208 40.6142 14.3925 41.2797 15.0981 41.2797H15.1163C15.4515 41.2595 15.7681 41.1175 16.0071 40.8803C16.2461 40.6431 16.3913 40.3269 16.4158 39.9902C16.422 39.8315 16.395 39.6734 16.3365 39.5258C16.278 39.3782 16.1894 39.2449 16.0763 39.1339C15.9104 38.9818 15.7151 38.8655 15.5026 38.7927C15.2901 38.7196 15.0649 38.6914 14.8411 38.7096Z" fill="#333333"/>
</g>
<defs>
<clipPath id="clip0_204_11">
<rect width="29" height="45" fill="white"/>
</clipPath>
</defs>
</svg>
