<svg width="35" height="35" viewBox="0 0 35 35" fill="none" xmlns="http://www.w3.org/2000/svg">
<path d="M7.84904 22.9638C10.2607 23.3926 12.6659 23.1994 15.2027 22.3729C16.6821 21.9023 18.0929 21.2268 19.3969 20.365C19.6421 20.6466 19.885 20.9266 20.1253 21.2053C20.7155 21.8885 21.2741 22.5338 21.8582 23.1812C24.7128 26.3461 27.8096 29.3554 30.8045 32.2657C31.3489 32.7949 31.893 33.3243 32.4368 33.8541C32.8631 34.256 33.3313 34.6074 33.8329 34.9021C33.9567 34.9702 34.0958 35.0038 34.236 34.9997C34.3826 35.0019 34.528 34.9704 34.6616 34.9073C34.7339 34.8698 34.798 34.8176 34.8504 34.7539C34.9028 34.6903 34.9424 34.6164 34.9667 34.5367C34.9954 34.4418 35.0057 34.342 34.997 34.2428C34.9883 34.1437 34.9608 34.0475 34.9161 33.9593C34.6792 33.4472 34.3896 32.9629 34.0525 32.5148C33.5091 31.8489 32.931 31.214 32.3209 30.6129C30.8998 29.1921 29.449 27.7542 28.0459 26.3635C27.0731 25.3994 26.1008 24.4346 25.1293 23.4689C24.1265 22.4711 23.15 21.4908 22.1163 20.4514C21.6953 20.0284 21.2715 19.603 20.8452 19.1753L20.9004 19.1127C20.9808 19.022 21.0431 18.9515 21.1094 18.885C22.7253 17.2683 23.6112 15.2456 23.7426 12.8739C23.9709 8.75516 22.6273 5.25878 19.7495 2.48061C18.3396 1.0871 16.5106 0.234438 14.5666 0.0644821C12.6759 -0.123444 10.7681 0.100499 8.96641 0.721866C6.20425 1.6925 3.85952 3.55461 1.99769 6.25663C0.39351 8.58458 -0.249473 11.1676 0.0866204 13.934C0.305837 15.7391 1.01287 17.4497 2.37884 19.4808C3.66967 21.3993 5.45867 22.5386 7.84904 22.9638ZM10.7055 2.8462C11.348 2.78983 12.0124 2.73169 12.6649 2.70938C12.7754 2.70581 12.8849 2.70396 12.9934 2.70386C15.9674 2.70386 18.2527 4.09793 19.7895 6.85111C21.165 9.31471 21.5541 11.6757 20.9793 14.0688C20.7823 14.9662 20.3889 15.805 19.8293 16.5207C19.1348 17.3933 18.2907 18.1261 17.3391 18.6825C15.1667 19.9569 12.7232 20.6573 10.2257 20.7215C9.98623 20.6941 9.74614 20.6699 9.50605 20.6457C8.97694 20.5924 8.42969 20.5371 7.89956 20.4477C6.58186 20.2424 5.3845 19.5398 4.53862 18.4758C3.50773 17.2333 2.76347 15.765 2.362 14.1818C1.90157 12.3467 2.06937 10.4036 2.83699 8.68172C3.69399 6.71503 4.83225 5.26399 6.31697 4.24577C7.50503 3.43116 8.58816 3.0122 9.72527 2.92772C10.0521 2.90347 10.3785 2.87475 10.7049 2.8462H10.7055Z" fill="#F8F6F2"/>
</svg>
